avconv version 9.18-6:9.18-0ubuntu0.14.04.1+fdkaac, Copyright (c) 2000-2014 the Libav developers
  built on Apr 10 2015 23:18:58 with gcc 4.8 (Ubuntu 4.8.2-19ubuntu1)
Input #0, image2, from 'imagenes/Cubo%02d.png':
  Duration: 00:00:04.00, start: 0.000000, bitrate: N/A
    Stream #0.0: Video: png, rgb24, 320x240, 25 fps, 25 tbr, 25 tbn
[libx264 @ 0x6a65a0] using cpu capabilities: MMX2 SSE2Fast SSSE3 SSE4.2 AVX
[libx264 @ 0x6a65a0] profile High, level 1.3
Output #0, avi, to 'result/cub_umh_154.avi':
  Metadata:
    ISFT            : Lavf54.20.4
    Stream #0.0: Video: libx264, yuv420p, 320x240, q=-1--1, 25 tbn, 25 tbc
Stream mapping:
  Stream #0:0 -> #0:0 (png -> libx264)
Press ctrl-c to stop encoding
frame=  100 fps=  0 q=28.0 size=     192kB time=1.68 bitrate= 937.1kbits/s    frame=  100 fps=  0 q=32764.0 Lsize=     432kB time=3.92 bitrate= 903.8kbits/s    
video:186kB audio:0kB global headers:0kB muxing overhead 132.177533%
[libx264 @ 0x6a65a0] frame I:16    Avg QP:25.89  size:  6550
[libx264 @ 0x6a65a0] frame P:84    Avg QP:27.92  size:  3928
[libx264 @ 0x6a65a0] mb I  I16..4: 10.3% 80.7%  8.9%
[libx264 @ 0x6a65a0] mb P  I16..4:  4.5% 23.7%  4.0%  P16..4: 23.6% 26.7% 13.1%  0.0%  0.0%    skip: 4.3%
[libx264 @ 0x6a65a0] 8x8 transform intra:76.3% inter:74.8%
[libx264 @ 0x6a65a0] coded y,uvDC,uvAC intra: 71.5% 93.2% 76.0% inter: 52.5% 63.8% 13.7%
[libx264 @ 0x6a65a0] i16 v,h,dc,p: 11% 42% 12% 36%
[libx264 @ 0x6a65a0] i8 v,h,dc,ddl,ddr,vr,hd,vl,hu: 20% 14% 21%  6%  6%  9%  5% 12%  7%
[libx264 @ 0x6a65a0] i4 v,h,dc,ddl,ddr,vr,hd,vl,hu: 23% 11% 16%  9%  8% 11%  6% 13%  5%
[libx264 @ 0x6a65a0] i8c dc,h,v,p: 40% 20% 23% 17%
[libx264 @ 0x6a65a0] Weighted P-Frames: Y:17.9% UV:14.3%
[libx264 @ 0x6a65a0] kb/s:869.47
bench: utime=2.433s maxrss=50712kB
